<?xml version="1.0" encoding="UTF-8"?>
<svg width="3440px" height="987px" viewBox="0 0 3440 987" version="1.1" xmlns="http://www.w3.org/2000/svg" xmlns:xlink="http://www.w3.org/1999/xlink">
    <!-- Generator: Sketch 53.2 (72643) - https://sketchapp.com -->
    <title>wotel-top-mountains</title>
    <desc>Created with Sketch.</desc>
    <defs>
        <linearGradient x1="27.1165859%" y1="71.043237%" x2="47.9661775%" y2="99.8510698%" id="linearGradient-1">
            <stop stop-color="#3BAFFF" offset="0%"></stop>
            <stop stop-color="#32DFA9" offset="100%"></stop>
        </linearGradient>
        <linearGradient x1="27.1094119%" y1="71.043237%" x2="47.9655399%" y2="99.8510698%" id="linearGradient-2">
            <stop stop-color="#3BAFFF" offset="0%"></stop>
            <stop stop-color="#32DFA9" offset="100%"></stop>
        </linearGradient>
        <linearGradient x1="48.2834823%" y1="76.7084625%" x2="82.8860562%" y2="81.1201528%" id="linearGradient-3">
            <stop stop-color="#3BAFFF" offset="0%"></stop>
            <stop stop-color="#32DFA9" offset="100%"></stop>
        </linearGradient>
    </defs>
    <g id="wotel-top-mountains" stroke="none" stroke-width="1" fill="none" fill-rule="evenodd">
        <g id="Group" transform="translate(1624.000000, -1021.000000)" fill-opacity="0.49" opacity="0.487048921">
            <path d="M633.212153,383.659077 L1266.34092,1017.29448 C1269.46215,1020.41817 1269.46215,1025.48006 1266.34092,1028.60375 L650.101554,1645.34537 C646.978588,1648.47079 641.913268,1648.47278 638.787847,1645.34981 C638.786364,1645.34833 638.784883,1645.34685 638.783401,1645.34537 L5.65908004,1011.70552 C2.53784877,1008.58183 2.53784877,1003.51994 5.65908004,1000.39625 L621.898446,383.654635 C625.021412,380.529213 630.086732,380.527223 633.212153,383.650189 C633.213636,383.65167 633.215117,383.653152 633.216599,383.654635 Z" id="Rectangle-Copy" fill="url(#linearGradient-1)"></path>
            <path d="M1348.9803,5.65863341 L2343.34136,1000.6526 C2346.46319,1003.77639 2346.46319,1008.83896 2343.34136,1011.96275 L1375.33341,1980.59414 C1372.2102,1983.71931 1367.14488,1983.72091 1364.0197,1980.5977 C1364.01852,1980.59651 1364.01733,1980.59532 1364.01615,1980.59414 L369.658636,985.596611 C366.536814,982.472824 366.536814,977.410249 369.658636,974.286462 L1337.66659,5.65507676 C1340.7898,2.52989982 1345.85512,2.52830646 1348.9803,5.65151787 C1348.98148,5.6527038 1348.98267,5.65389009 1348.98385,5.65507676 Z" id="Rectangle-Copy-2" fill="url(#linearGradient-2)"></path>
        </g>
        <g id="Top-left" transform="translate(764.000000, -380.000000)">
            <g id="Group-2">
                <g>
                    <rect id="Rectangle" fill-opacity="0.68" fill="#296CF7" transform="translate(461.500000, 362.000000) rotate(-315.000000) translate(-461.500000, -362.000000) " x="254" y="171" width="415" height="382" rx="8"></rect>
                    <rect id="Rectangle-Copy" fill="url(#linearGradient-3)" opacity="0.487048921" transform="translate(282.500000, 282.000000) rotate(-315.000000) translate(-282.500000, -282.000000) " x="75" y="91" width="415" height="382" rx="8"></rect>
                </g>
            </g>
        </g>
    </g>
</svg>